<?xml version="1.0" encoding="UTF-8" standalone="no"?>
<!DOCTYPE svg PUBLIC "-//W3C//DTD SVG 1.1//EN"
 "http://www.w3.org/Graphics/SVG/1.1/DTD/svg11.dtd">
<!-- Generated by graphviz version 2.40.1 (20161225.0304)
 -->
<!-- Title: aqua Pages: 1 -->
<svg width="366pt" height="793pt"
 viewBox="0.00 0.00 366.00 793.40" xmlns="http://www.w3.org/2000/svg" xmlns:xlink="http://www.w3.org/1999/xlink">
<g id="graph0" class="graph" transform="scale(1 1) rotate(0) translate(4 789.4)">
<title>aqua</title>
<polygon fill="#ffffff" stroke="transparent" points="-4,4 -4,-789.4 362,-789.4 362,4 -4,4"/>
<text text-anchor="middle" x="179" y="-768.8" font-family="Times,serif" font-size="14.00" fill="#000000">AQuA Pipeline v1</text>
<g id="clust1" class="cluster">
<title>cluster_prd</title>
<polygon fill="#ffff00" stroke="#000000" points="111,-613.2 111,-695.6 247,-695.6 247,-613.2 111,-613.2"/>
<text text-anchor="middle" x="179" y="-621.4" font-family="Times,serif" font-size="14.00" fill="#000000">Pull Revision Docker</text>
</g>
<g id="clust2" class="cluster">
<title>cluster_sr</title>
<polygon fill="#ffff00" stroke="#000000" points="109,-433.2 109,-515.6 249,-515.6 249,-433.2 109,-433.2"/>
<text text-anchor="middle" x="179" y="-441.4" font-family="Times,serif" font-size="14.00" fill="#000000">Split Revision Docker</text>
</g>
<g id="clust3" class="cluster">
<title>cluster_ss</title>
<polygon fill="#ffff00" stroke="#000000" points="8,-253.2 8,-335.6 350,-335.6 350,-253.2 8,-253.2"/>
<text text-anchor="middle" x="179" y="-261.4" font-family="Times,serif" font-size="14.00" fill="#000000">Semantic Similarity Docker</text>
</g>
<g id="clust4" class="cluster">
<title>cluster_cd</title>
<polygon fill="#ffff00" stroke="#000000" points="142,-78.8 142,-161.2 272,-161.2 272,-78.8 142,-78.8"/>
<text text-anchor="middle" x="207" y="-87" font-family="Times,serif" font-size="14.00" fill="#000000">Check Done Docker</text>
</g>
<!-- db -->
<g id="node1" class="node">
<title>db</title>
<path fill="#00ff00" stroke="#000000" d="M178,-32.7273C178,-34.5331 165.8982,-36 151,-36 136.1018,-36 124,-34.5331 124,-32.7273 124,-32.7273 124,-3.2727 124,-3.2727 124,-1.4669 136.1018,0 151,0 165.8982,0 178,-1.4669 178,-3.2727 178,-3.2727 178,-32.7273 178,-32.7273"/>
<path fill="none" stroke="#000000" d="M178,-32.7273C178,-30.9214 165.8982,-29.4545 151,-29.4545 136.1018,-29.4545 124,-30.9214 124,-32.7273"/>
<text text-anchor="middle" x="151" y="-13.8" font-family="Times,serif" font-size="14.00" fill="#000000">DB</text>
</g>
<!-- pull_revision -->
<g id="node2" class="node">
<title>pull_revision</title>
<polygon fill="#ffa500" stroke="#000000" points="218.102,-687.4019 139.898,-687.4019 139.898,-683.4019 135.898,-683.4019 135.898,-679.4019 139.898,-679.4019 139.898,-654.1981 135.898,-654.1981 135.898,-650.1981 139.898,-650.1981 139.898,-646.1981 218.102,-646.1981 218.102,-687.4019"/>
<polyline fill="none" stroke="#000000" points="139.898,-683.4019 143.898,-683.4019 143.898,-679.4019 139.898,-679.4019 "/>
<polyline fill="none" stroke="#000000" points="139.898,-654.1981 143.898,-654.1981 143.898,-650.1981 139.898,-650.1981 "/>
<text text-anchor="middle" x="179" y="-671" font-family="Times,serif" font-size="14.00" fill="#000000">Pull</text>
<text text-anchor="middle" x="179" y="-654.2" font-family="Times,serif" font-size="14.00" fill="#000000">revision.py</text>
</g>
<!-- pull_revision1 -->
<g id="node9" class="node">
<title>pull_revision1</title>
<polygon fill="#00ffff" stroke="#000000" points="215.0582,-586.0019 136.9418,-586.0019 136.9418,-544.7981 221.0582,-544.7981 221.0582,-580.0019 215.0582,-586.0019"/>
<polyline fill="none" stroke="#000000" points="215.0582,-586.0019 215.0582,-580.0019 "/>
<polyline fill="none" stroke="#000000" points="221.0582,-580.0019 215.0582,-580.0019 "/>
<text text-anchor="middle" x="179" y="-569.6" font-family="Times,serif" font-size="14.00" fill="#000000">Pull</text>
<text text-anchor="middle" x="179" y="-552.8" font-family="Times,serif" font-size="14.00" fill="#000000">Revision.txt</text>
</g>
<!-- pull_revision&#45;&gt;pull_revision1 -->
<g id="edge2" class="edge">
<title>pull_revision&#45;&gt;pull_revision1</title>
<path fill="none" stroke="#000000" d="M179,-645.7899C179,-631.419 179,-612.1344 179,-596.0556"/>
<polygon fill="#000000" stroke="#000000" points="182.5001,-596.0363 179,-586.0363 175.5001,-596.0363 182.5001,-596.0363"/>
</g>
<!-- split_revision -->
<g id="node3" class="node">
<title>split_revision</title>
<polygon fill="#ffa500" stroke="#000000" points="218.102,-507.4019 139.898,-507.4019 139.898,-503.4019 135.898,-503.4019 135.898,-499.4019 139.898,-499.4019 139.898,-474.1981 135.898,-474.1981 135.898,-470.1981 139.898,-470.1981 139.898,-466.1981 218.102,-466.1981 218.102,-507.4019"/>
<polyline fill="none" stroke="#000000" points="139.898,-503.4019 143.898,-503.4019 143.898,-499.4019 139.898,-499.4019 "/>
<polyline fill="none" stroke="#000000" points="139.898,-474.1981 143.898,-474.1981 143.898,-470.1981 139.898,-470.1981 "/>
<text text-anchor="middle" x="179" y="-491" font-family="Times,serif" font-size="14.00" fill="#000000">Split</text>
<text text-anchor="middle" x="179" y="-474.2" font-family="Times,serif" font-size="14.00" fill="#000000">revision.py</text>
</g>
<!-- split_revision1 -->
<g id="node10" class="node">
<title>split_revision1</title>
<polygon fill="#00ffff" stroke="#000000" points="108.5582,-406.0019 23.4418,-406.0019 23.4418,-364.7981 114.5582,-364.7981 114.5582,-400.0019 108.5582,-406.0019"/>
<polyline fill="none" stroke="#000000" points="108.5582,-406.0019 108.5582,-400.0019 "/>
<polyline fill="none" stroke="#000000" points="114.5582,-400.0019 108.5582,-400.0019 "/>
<text text-anchor="middle" x="69" y="-389.6" font-family="Times,serif" font-size="14.00" fill="#000000">Split</text>
<text text-anchor="middle" x="69" y="-372.8" font-family="Times,serif" font-size="14.00" fill="#000000">Revision1.txt</text>
</g>
<!-- split_revision&#45;&gt;split_revision1 -->
<g id="edge4" class="edge">
<title>split_revision&#45;&gt;split_revision1</title>
<path fill="none" stroke="#000000" d="M156.4744,-466.0355C139.8649,-450.7245 117.0993,-429.7388 98.9565,-413.0145"/>
<polygon fill="#000000" stroke="#000000" points="101.2204,-410.3411 91.4955,-406.1367 96.4759,-415.488 101.2204,-410.3411"/>
</g>
<!-- split_revision2 -->
<g id="node11" class="node">
<title>split_revision2</title>
<polygon fill="#00ffff" stroke="#000000" points="218.5582,-406.0019 133.4418,-406.0019 133.4418,-364.7981 224.5582,-364.7981 224.5582,-400.0019 218.5582,-406.0019"/>
<polyline fill="none" stroke="#000000" points="218.5582,-406.0019 218.5582,-400.0019 "/>
<polyline fill="none" stroke="#000000" points="224.5582,-400.0019 218.5582,-400.0019 "/>
<text text-anchor="middle" x="179" y="-389.6" font-family="Times,serif" font-size="14.00" fill="#000000">Split</text>
<text text-anchor="middle" x="179" y="-372.8" font-family="Times,serif" font-size="14.00" fill="#000000">Revision2.txt</text>
</g>
<!-- split_revision&#45;&gt;split_revision2 -->
<g id="edge5" class="edge">
<title>split_revision&#45;&gt;split_revision2</title>
<path fill="none" stroke="#000000" d="M179,-465.7899C179,-451.419 179,-432.1344 179,-416.0556"/>
<polygon fill="#000000" stroke="#000000" points="182.5001,-416.0363 179,-406.0363 175.5001,-416.0363 182.5001,-416.0363"/>
</g>
<!-- split_revision3 -->
<g id="node12" class="node">
<title>split_revision3</title>
<polygon fill="#00ffff" stroke="#000000" points="330.5582,-406.0019 245.4418,-406.0019 245.4418,-364.7981 336.5582,-364.7981 336.5582,-400.0019 330.5582,-406.0019"/>
<polyline fill="none" stroke="#000000" points="330.5582,-406.0019 330.5582,-400.0019 "/>
<polyline fill="none" stroke="#000000" points="336.5582,-400.0019 330.5582,-400.0019 "/>
<text text-anchor="middle" x="291" y="-389.6" font-family="Times,serif" font-size="14.00" fill="#000000">Split</text>
<text text-anchor="middle" x="291" y="-372.8" font-family="Times,serif" font-size="14.00" fill="#000000">Revision3.txt</text>
</g>
<!-- split_revision&#45;&gt;split_revision3 -->
<g id="edge6" class="edge">
<title>split_revision&#45;&gt;split_revision3</title>
<path fill="none" stroke="#000000" d="M201.9351,-466.0355C218.8467,-450.7245 242.0261,-429.7388 260.4988,-413.0145"/>
<polygon fill="#000000" stroke="#000000" points="263.0314,-415.4429 268.0955,-406.1367 258.3333,-410.2537 263.0314,-415.4429"/>
</g>
<!-- sem_sim1 -->
<g id="node4" class="node">
<title>sem_sim1</title>
<polygon fill="#ffa500" stroke="#000000" points="112.0027,-327.4019 15.9973,-327.4019 15.9973,-323.4019 11.9973,-323.4019 11.9973,-319.4019 15.9973,-319.4019 15.9973,-294.1981 11.9973,-294.1981 11.9973,-290.1981 15.9973,-290.1981 15.9973,-286.1981 112.0027,-286.1981 112.0027,-327.4019"/>
<polyline fill="none" stroke="#000000" points="15.9973,-323.4019 19.9973,-323.4019 19.9973,-319.4019 15.9973,-319.4019 "/>
<polyline fill="none" stroke="#000000" points="15.9973,-294.1981 19.9973,-294.1981 19.9973,-290.1981 15.9973,-290.1981 "/>
<text text-anchor="middle" x="64" y="-311" font-family="Times,serif" font-size="14.00" fill="#000000">Semantic</text>
<text text-anchor="middle" x="64" y="-294.2" font-family="Times,serif" font-size="14.00" fill="#000000">Similarity1.py</text>
</g>
<!-- sem_sim_result1 -->
<g id="node13" class="node">
<title>sem_sim_result1</title>
<polygon fill="#00ffff" stroke="#000000" points="110.2332,-226.2 27.7668,-226.2 27.7668,-190.2 116.2332,-190.2 116.2332,-220.2 110.2332,-226.2"/>
<polyline fill="none" stroke="#000000" points="110.2332,-226.2 110.2332,-220.2 "/>
<polyline fill="none" stroke="#000000" points="116.2332,-220.2 110.2332,-220.2 "/>
<text text-anchor="middle" x="72" y="-204" font-family="Times,serif" font-size="14.00" fill="#000000">SemSim1.txt</text>
</g>
<!-- sem_sim1&#45;&gt;sem_sim_result1 -->
<g id="edge10" class="edge">
<title>sem_sim1&#45;&gt;sem_sim_result1</title>
<path fill="none" stroke="#000000" d="M65.6966,-285.8895C66.8593,-271.5592 68.4159,-252.3744 69.6913,-236.6551"/>
<polygon fill="#000000" stroke="#000000" points="73.2008,-236.6788 70.521,-226.4284 66.2237,-236.1126 73.2008,-236.6788"/>
</g>
<!-- sem_sim2 -->
<g id="node5" class="node">
<title>sem_sim2</title>
<polygon fill="#ffa500" stroke="#000000" points="227.0027,-327.4019 130.9973,-327.4019 130.9973,-323.4019 126.9973,-323.4019 126.9973,-319.4019 130.9973,-319.4019 130.9973,-294.1981 126.9973,-294.1981 126.9973,-290.1981 130.9973,-290.1981 130.9973,-286.1981 227.0027,-286.1981 227.0027,-327.4019"/>
<polyline fill="none" stroke="#000000" points="130.9973,-323.4019 134.9973,-323.4019 134.9973,-319.4019 130.9973,-319.4019 "/>
<polyline fill="none" stroke="#000000" points="130.9973,-294.1981 134.9973,-294.1981 134.9973,-290.1981 130.9973,-290.1981 "/>
<text text-anchor="middle" x="179" y="-311" font-family="Times,serif" font-size="14.00" fill="#000000">Semantic</text>
<text text-anchor="middle" x="179" y="-294.2" font-family="Times,serif" font-size="14.00" fill="#000000">Similarity2.py</text>
</g>
<!-- sem_sim_result2 -->
<g id="node14" class="node">
<title>sem_sim_result2</title>
<polygon fill="#00ffff" stroke="#000000" points="217.2332,-226.2 134.7668,-226.2 134.7668,-190.2 223.2332,-190.2 223.2332,-220.2 217.2332,-226.2"/>
<polyline fill="none" stroke="#000000" points="217.2332,-226.2 217.2332,-220.2 "/>
<polyline fill="none" stroke="#000000" points="223.2332,-220.2 217.2332,-220.2 "/>
<text text-anchor="middle" x="179" y="-204" font-family="Times,serif" font-size="14.00" fill="#000000">SemSim2.txt</text>
</g>
<!-- sem_sim2&#45;&gt;sem_sim_result2 -->
<g id="edge11" class="edge">
<title>sem_sim2&#45;&gt;sem_sim_result2</title>
<path fill="none" stroke="#000000" d="M179,-285.8895C179,-271.5592 179,-252.3744 179,-236.6551"/>
<polygon fill="#000000" stroke="#000000" points="182.5001,-236.4284 179,-226.4284 175.5001,-236.4285 182.5001,-236.4284"/>
</g>
<!-- sem_sim3 -->
<g id="node6" class="node">
<title>sem_sim3</title>
<polygon fill="#ffa500" stroke="#000000" points="342.0027,-327.4019 245.9973,-327.4019 245.9973,-323.4019 241.9973,-323.4019 241.9973,-319.4019 245.9973,-319.4019 245.9973,-294.1981 241.9973,-294.1981 241.9973,-290.1981 245.9973,-290.1981 245.9973,-286.1981 342.0027,-286.1981 342.0027,-327.4019"/>
<polyline fill="none" stroke="#000000" points="245.9973,-323.4019 249.9973,-323.4019 249.9973,-319.4019 245.9973,-319.4019 "/>
<polyline fill="none" stroke="#000000" points="245.9973,-294.1981 249.9973,-294.1981 249.9973,-290.1981 245.9973,-290.1981 "/>
<text text-anchor="middle" x="294" y="-311" font-family="Times,serif" font-size="14.00" fill="#000000">Semantic</text>
<text text-anchor="middle" x="294" y="-294.2" font-family="Times,serif" font-size="14.00" fill="#000000">Similarity3.py</text>
</g>
<!-- sem_sim_result3 -->
<g id="node15" class="node">
<title>sem_sim_result3</title>
<polygon fill="#00ffff" stroke="#000000" points="328.2332,-226.2 245.7668,-226.2 245.7668,-190.2 334.2332,-190.2 334.2332,-220.2 328.2332,-226.2"/>
<polyline fill="none" stroke="#000000" points="328.2332,-226.2 328.2332,-220.2 "/>
<polyline fill="none" stroke="#000000" points="334.2332,-220.2 328.2332,-220.2 "/>
<text text-anchor="middle" x="290" y="-204" font-family="Times,serif" font-size="14.00" fill="#000000">SemSim3.txt</text>
</g>
<!-- sem_sim3&#45;&gt;sem_sim_result3 -->
<g id="edge12" class="edge">
<title>sem_sim3&#45;&gt;sem_sim_result3</title>
<path fill="none" stroke="#000000" d="M293.1517,-285.8895C292.5704,-271.5592 291.7921,-252.3744 291.1544,-236.6551"/>
<polygon fill="#000000" stroke="#000000" points="294.6421,-236.2783 290.7395,-226.4284 287.6478,-236.5621 294.6421,-236.2783"/>
</g>
<!-- done -->
<g id="node7" class="node">
<title>done</title>
<polygon fill="#ffa500" stroke="#000000" points="206,-153.0019 152,-153.0019 152,-149.0019 148,-149.0019 148,-145.0019 152,-145.0019 152,-119.7981 148,-119.7981 148,-115.7981 152,-115.7981 152,-111.7981 206,-111.7981 206,-153.0019"/>
<polyline fill="none" stroke="#000000" points="152,-149.0019 156,-149.0019 156,-145.0019 152,-145.0019 "/>
<polyline fill="none" stroke="#000000" points="152,-119.7981 156,-119.7981 156,-115.7981 152,-115.7981 "/>
<text text-anchor="middle" x="179" y="-136.6" font-family="Times,serif" font-size="14.00" fill="#000000">Check</text>
<text text-anchor="middle" x="179" y="-119.8" font-family="Times,serif" font-size="14.00" fill="#000000">Done</text>
</g>
<!-- done&#45;&gt;db -->
<g id="edge19" class="edge">
<title>done&#45;&gt;db</title>
<path fill="none" stroke="#000000" d="M173.9294,-111.683C169.4471,-93.3695 162.8689,-66.4928 157.9066,-46.2182"/>
<polygon fill="#000000" stroke="#000000" points="161.2557,-45.1793 155.4785,-36.2981 154.4563,-46.8435 161.2557,-45.1793"/>
<text text-anchor="middle" x="205.763" y="-58.2" font-family="Times,serif" font-size="14.00" fill="#000000">update_status()</text>
</g>
<!-- revision -->
<g id="node8" class="node">
<title>revision</title>
<polygon fill="#00ffff" stroke="#000000" points="215.0582,-760.6 136.9418,-760.6 136.9418,-724.6 221.0582,-724.6 221.0582,-754.6 215.0582,-760.6"/>
<polyline fill="none" stroke="#000000" points="215.0582,-760.6 215.0582,-754.6 "/>
<polyline fill="none" stroke="#000000" points="221.0582,-754.6 215.0582,-754.6 "/>
<text text-anchor="middle" x="179" y="-738.4" font-family="Times,serif" font-size="14.00" fill="#000000">Revision.txt</text>
</g>
<!-- revision&#45;&gt;pull_revision -->
<g id="edge1" class="edge">
<title>revision&#45;&gt;pull_revision</title>
<path fill="none" stroke="#000000" d="M179,-724.2509C179,-716.315 179,-706.8041 179,-697.8258"/>
<polygon fill="#000000" stroke="#000000" points="182.5001,-697.6568 179,-687.6568 175.5001,-697.6569 182.5001,-697.6568"/>
</g>
<!-- pull_revision1&#45;&gt;split_revision -->
<g id="edge3" class="edge">
<title>pull_revision1&#45;&gt;split_revision</title>
<path fill="none" stroke="#000000" d="M179,-544.7488C179,-536.5105 179,-526.8489 179,-517.802"/>
<polygon fill="#000000" stroke="#000000" points="182.5001,-517.5862 179,-507.5862 175.5001,-517.5862 182.5001,-517.5862"/>
</g>
<!-- split_revision1&#45;&gt;sem_sim1 -->
<g id="edge7" class="edge">
<title>split_revision1&#45;&gt;sem_sim1</title>
<path fill="none" stroke="#000000" d="M67.6863,-364.7488C67.1622,-356.5105 66.5476,-346.8489 65.9721,-337.802"/>
<polygon fill="#000000" stroke="#000000" points="69.4502,-337.3438 65.3223,-327.5862 62.4643,-337.7883 69.4502,-337.3438"/>
</g>
<!-- split_revision2&#45;&gt;sem_sim2 -->
<g id="edge8" class="edge">
<title>split_revision2&#45;&gt;sem_sim2</title>
<path fill="none" stroke="#000000" d="M179,-364.7488C179,-356.5105 179,-346.8489 179,-337.802"/>
<polygon fill="#000000" stroke="#000000" points="182.5001,-337.5862 179,-327.5862 175.5001,-337.5862 182.5001,-337.5862"/>
</g>
<!-- split_revision3&#45;&gt;sem_sim3 -->
<g id="edge9" class="edge">
<title>split_revision3&#45;&gt;sem_sim3</title>
<path fill="none" stroke="#000000" d="M291.7882,-364.7488C292.1027,-356.5105 292.4714,-346.8489 292.8167,-337.802"/>
<polygon fill="#000000" stroke="#000000" points="296.3226,-337.7124 293.2066,-327.5862 289.3277,-337.4454 296.3226,-337.7124"/>
</g>
<!-- sem_sim_result1&#45;&gt;db -->
<g id="edge16" class="edge">
<title>sem_sim_result1&#45;&gt;db</title>
<path fill="none" stroke="#000000" d="M78.0872,-189.8121C87.9846,-160.548 108.7139,-101.8009 131,-54 132.3897,-51.0192 133.9258,-47.9472 135.5107,-44.9131"/>
<polygon fill="#000000" stroke="#000000" points="138.6248,-46.5127 140.3146,-36.0535 132.4711,-43.1761 138.6248,-46.5127"/>
</g>
<!-- sem_sim_result1&#45;&gt;done -->
<g id="edge13" class="edge">
<title>sem_sim_result1&#45;&gt;done</title>
<path fill="none" stroke="#000000" d="M97.6292,-190.044C111.2734,-180.3783 128.2732,-168.3355 143.2008,-157.7605"/>
<polygon fill="#000000" stroke="#000000" points="145.5728,-160.3695 151.7095,-151.7329 141.5263,-154.6575 145.5728,-160.3695"/>
</g>
<!-- sem_sim_result2&#45;&gt;db -->
<g id="edge17" class="edge">
<title>sem_sim_result2&#45;&gt;db</title>
<path fill="none" stroke="#000000" d="M157.4166,-189.7706C149.7508,-181.8527 142.0289,-171.9474 138,-161.2 123.734,-123.1446 132.8708,-75.5765 141.4139,-45.9862"/>
<polygon fill="#000000" stroke="#000000" points="144.7941,-46.9009 144.3715,-36.3145 138.1001,-44.8538 144.7941,-46.9009"/>
</g>
<!-- sem_sim_result2&#45;&gt;done -->
<g id="edge14" class="edge">
<title>sem_sim_result2&#45;&gt;done</title>
<path fill="none" stroke="#000000" d="M179,-189.8509C179,-181.915 179,-172.4041 179,-163.4258"/>
<polygon fill="#000000" stroke="#000000" points="182.5001,-163.2568 179,-153.2568 175.5001,-163.2569 182.5001,-163.2568"/>
</g>
<!-- sem_sim_result3&#45;&gt;db -->
<g id="edge18" class="edge">
<title>sem_sim_result3&#45;&gt;db</title>
<path fill="none" stroke="#000000" d="M291.5162,-190.1108C292.9384,-164.2038 292.7792,-115.603 276,-78.8 260.7097,-45.2627 219.1701,-30.1014 188.1455,-23.3269"/>
<polygon fill="#000000" stroke="#000000" points="188.5694,-19.843 178.0804,-21.3365 187.2114,-26.71 188.5694,-19.843"/>
</g>
<!-- sem_sim_result3&#45;&gt;done -->
<g id="edge15" class="edge">
<title>sem_sim_result3&#45;&gt;done</title>
<path fill="none" stroke="#000000" d="M263.4127,-190.044C248.8014,-180.0662 230.4808,-167.5554 214.6445,-156.741"/>
<polygon fill="#000000" stroke="#000000" points="216.3734,-153.6835 206.1414,-150.9344 212.4258,-159.4642 216.3734,-153.6835"/>
</g>
</g>
</svg>
